<mxfile host="app.diagrams.net" modified="2024-05-06T13:47:51.635Z" agent="Mozilla/5.0 (X11; Ubuntu; Linux x86_64; rv:125.0) Gecko/20100101 Firefox/125.0" etag="3L_jvAWP3iNFTDuyy6FS" version="24.3.1" type="device">
  <diagram name="Page-1" id="GZBFxvJXoxZnEtgETqop">
    <mxGraphModel dx="574" dy="310" grid="1" gridSize="10" guides="1" tooltips="1" connect="1" arrows="1" fold="1" page="1" pageScale="1" pageWidth="827" pageHeight="1169" math="0" shadow="0">
      <root>
        <mxCell id="0" />
        <mxCell id="1" parent="0" />
        <mxCell id="wsGLkKjSFnASxqrC0h3r-1" value="&lt;div&gt;E&lt;/div&gt;" style="ellipse;whiteSpace=wrap;html=1;fillColor=#f8cecc;strokeColor=#b85450;" parent="1" vertex="1">
          <mxGeometry x="320" y="128" width="40" height="40" as="geometry" />
        </mxCell>
        <mxCell id="wsGLkKjSFnASxqrC0h3r-10" value="" style="curved=1;endArrow=oval;html=1;rounded=0;strokeColor=#babdb6;endFill=1;" parent="1" edge="1">
          <mxGeometry width="50" height="50" relative="1" as="geometry">
            <mxPoint x="321" y="220" as="sourcePoint" />
            <mxPoint x="320" y="148" as="targetPoint" />
            <Array as="points">
              <mxPoint x="300" y="188" />
            </Array>
          </mxGeometry>
        </mxCell>
        <mxCell id="POe4UxMfwcIb3ofmdQq3-35" value="&lt;font color=&quot;#babdb6&quot;&gt;W&lt;sub&gt;IE&lt;/sub&gt;&lt;/font&gt;" style="edgeLabel;html=1;align=center;verticalAlign=middle;resizable=0;points=[];" parent="wsGLkKjSFnASxqrC0h3r-10" vertex="1" connectable="0">
          <mxGeometry x="0.1441" y="-6" relative="1" as="geometry">
            <mxPoint as="offset" />
          </mxGeometry>
        </mxCell>
        <mxCell id="wsGLkKjSFnASxqrC0h3r-11" value="" style="curved=1;endArrow=classic;html=1;rounded=0;strokeColor=#babdb6;endFill=1;entryX=1;entryY=0.5;entryDx=0;entryDy=0;" parent="1" edge="1">
          <mxGeometry width="50" height="50" relative="1" as="geometry">
            <mxPoint x="360" y="148" as="sourcePoint" />
            <mxPoint x="360" y="218" as="targetPoint" />
            <Array as="points">
              <mxPoint x="380" y="178" />
            </Array>
          </mxGeometry>
        </mxCell>
        <mxCell id="POe4UxMfwcIb3ofmdQq3-36" value="&lt;font color=&quot;#babdb6&quot;&gt;W&lt;sub&gt;EI&lt;/sub&gt;&lt;/font&gt;" style="edgeLabel;html=1;align=center;verticalAlign=middle;resizable=0;points=[];" parent="wsGLkKjSFnASxqrC0h3r-11" vertex="1" connectable="0">
          <mxGeometry x="-0.373" y="-6" relative="1" as="geometry">
            <mxPoint as="offset" />
          </mxGeometry>
        </mxCell>
        <mxCell id="wsGLkKjSFnASxqrC0h3r-19" value="" style="curved=1;endArrow=classic;html=1;rounded=0;strokeColor=none;endFill=1;entryX=1;entryY=0.5;entryDx=0;entryDy=0;" parent="1" edge="1">
          <mxGeometry width="50" height="50" relative="1" as="geometry">
            <mxPoint x="350" y="48" as="sourcePoint" />
            <mxPoint x="350" y="118" as="targetPoint" />
            <Array as="points">
              <mxPoint x="370" y="78" />
            </Array>
          </mxGeometry>
        </mxCell>
        <mxCell id="POe4UxMfwcIb3ofmdQq3-27" value="" style="edgeStyle=none;orthogonalLoop=1;jettySize=auto;html=1;rounded=0;exitX=0;exitY=0;exitDx=0;exitDy=0;entryX=1;entryY=0;entryDx=0;entryDy=0;curved=1;strokeColor=#babdb6;" parent="1" source="wsGLkKjSFnASxqrC0h3r-1" target="wsGLkKjSFnASxqrC0h3r-1" edge="1">
          <mxGeometry width="80" relative="1" as="geometry">
            <mxPoint x="320" y="108" as="sourcePoint" />
            <mxPoint x="400" y="108" as="targetPoint" />
            <Array as="points">
              <mxPoint x="320" y="118" />
              <mxPoint x="340" y="108" />
              <mxPoint x="360" y="118" />
            </Array>
          </mxGeometry>
        </mxCell>
        <mxCell id="POe4UxMfwcIb3ofmdQq3-34" value="&lt;font color=&quot;#d3d7cf&quot;&gt;W&lt;sub&gt;EE&lt;/sub&gt;&lt;/font&gt;" style="edgeLabel;html=1;align=center;verticalAlign=middle;resizable=0;points=[];" parent="POe4UxMfwcIb3ofmdQq3-27" vertex="1" connectable="0">
          <mxGeometry x="-0.0894" y="-2" relative="1" as="geometry">
            <mxPoint as="offset" />
          </mxGeometry>
        </mxCell>
        <mxCell id="LONf2HWQU-KaP44Tsp3a-1" value="" style="curved=1;endArrow=classic;html=1;rounded=0;exitX=0.932;exitY=0.265;exitDx=0;exitDy=0;exitPerimeter=0;strokeColor=#babdb6;" edge="1" parent="1" source="wsGLkKjSFnASxqrC0h3r-1">
          <mxGeometry width="50" height="50" relative="1" as="geometry">
            <mxPoint x="380" y="138" as="sourcePoint" />
            <mxPoint x="470" y="138" as="targetPoint" />
            <Array as="points">
              <mxPoint x="430" y="88" />
            </Array>
          </mxGeometry>
        </mxCell>
        <mxCell id="LONf2HWQU-KaP44Tsp3a-2" value="" style="curved=1;endArrow=classic;html=1;rounded=0;exitX=0.98;exitY=0.381;exitDx=0;exitDy=0;exitPerimeter=0;startArrow=classic;startFill=1;strokeColor=#babdb6;" edge="1" parent="1" source="wsGLkKjSFnASxqrC0h3r-1">
          <mxGeometry width="50" height="50" relative="1" as="geometry">
            <mxPoint x="380" y="139" as="sourcePoint" />
            <mxPoint x="470" y="148" as="targetPoint" />
            <Array as="points">
              <mxPoint x="430" y="178" />
            </Array>
          </mxGeometry>
        </mxCell>
        <mxCell id="LONf2HWQU-KaP44Tsp3a-6" value="" style="shape=image;imageAspect=0;aspect=fixed;verticalLabelPosition=bottom;verticalAlign=top;image=data:image/png,iVBORw0KGgoAAAANSUhEUgAAATQAAADQCAIAAAAGQQroAAAAiXpUWHRSYXcgcHJvZmlsZSB0eXBlIGV4aWYAAHjaVY7LDQMxCETvVJESho/BlBNtdqV0kPKD15YSvwPMIDRA5+d90WPAMLIW3dMdhaWlPEt0TBRgAY9edbK6cikpuzypTOHZA/ZbNMNGU+9+hUV488MPqXQ5Ve/KCrq3Rth4Jf8u2lK6z197PugL+BMtD6FfrQQAAAoGaVRYdFhNTDpjb20uYWRvYmUueG1wAAAAAAA8P3hwYWNrZXQgYmVnaW49Iu+7vyIgaWQ9Ilc1TTBNcENlaGlIenJlU3pOVGN6a2M5ZCI/Pgo8eDp4bXBtZXRhIHhtbG5zOng9ImFkb2JlOm5zOm1ldGEvIiB4OnhtcHRrPSJYTVAgQ29yZSA0LjQuMC1FeGl2MiI+CiA8cmRmOlJERiB4bWxuczpyZGY9Imh0dHA6Ly93d3cudzMub3JnLzE5OTkvMDIvMjItcmRmLXN5bnRheC1ucyMiPgogIDxyZGY6RGVzY3JpcHRpb24gcmRmOmFib3V0PSIiCiAgICB4bWxuczpleGlmPSJodHRwOi8vbnMuYWRvYmUuY29tL2V4aWYvMS4wLyIKICAgIHhtbG5zOnRpZmY9Imh0dHA6Ly9ucy5hZG9iZS5jb20vdGlmZi8xLjAvIgogICBleGlmOlBpeGVsWERpbWVuc2lvbj0iMzA4IgogICBleGlmOlBpeGVsWURpbWVuc2lvbj0iMjA4IgogICB0aWZmOkltYWdlV2lkdGg9IjMwOCIKICAgdGlmZjpJbWFnZUhlaWdodD0iMjA4IgogICB0aWZmOk9yaWVudGF0aW9uPSIxIi8+CiA8L3JkZjpSREY+CjwveDp4bXBtZXRhPgogICAgICAgICAgICAgICAgICAgICAgICAgICAgICAgICAgICAgICAgICAgICAgICAgICAgICAgICAgICAgICAgICAgICAgICAgICAgICAgICAgICAgICAgICAgICAgICAgICAgCiAgICAgICAgICAgICAgICAgICAgICAgICAgICAgICAgICAgICAgICAgICAgICAgICAgICAgICAgICAgICAgICAgICAgICAgICAgICAgICAgICAgICAgICAgICAgICAgICAgICAKICAgICAgICAgICAgICAgICAgICAgICAgICAgICAgICAgICAgICAgICAgICAgICAgICAgICAgICAgICAgICAgICAgICAgICAgICAgICAgICAgICAgICAgICAgICAgICAgICAgIAogICAgICAgICAgICAgICAgICAgICAgICAgICAgICAgICAgICAgICAgICAgICAgICAgICAgICAgICAgICAgICAgICAgICAgICAgICAgICAgICAgICAgICAgICAgICAgICAgICAgCiAgICAgICAgICAgICAgICAgICAgICAgICAgICAgICAgICAgICAgICAgICAgICAgICAgICAgICAgICAgICAgICAgICAgICAgICAgICAgICAgICAgICAgICAgICAgICAgICAgICAKICAgICAgICAgICAgICAgICAgICAgICAgICAgICAgICAgICAgICAgICAgICAgICAgICAgICAgICAgICAgICAgICAgICAgICAgICAgICAgICAgICAgICAgICAgICAgICAgICAgIAogICAgICAgICAgICAgICAgICAgICAgICAgICAgICAgICAgICAgICAgICAgICAgICAgICAgICAgICAgICAgICAgICAgICAgICAgICAgICAgICAgICAgICAgICAgICAgICAgICAgCiAgICAgICAgICAgICAgICAgICAgICAgICAgICAgICAgICAgICAgICAgICAgICAgICAgICAgICAgICAgICAgICAgICAgICAgICAgICAgICAgICAgICAgICAgICAgICAgICAgICAKICAgICAgICAgICAgICAgICAgICAgICAgICAgICAgICAgICAgICAgICAgICAgICAgICAgICAgICAgICAgICAgICAgICAgICAgICAgICAgICAgICAgICAgICAgICAgICAgICAgIAogICAgICAgICAgICAgICAgICAgICAgICAgICAgICAgICAgICAgICAgICAgICAgICAgICAgICAgICAgICAgICAgICAgICAgICAgICAgICAgICAgICAgICAgICAgICAgICAgICAgCiAgICAgICAgICAgICAgICAgICAgICAgICAgICAgICAgICAgICAgICAgICAgICAgICAgICAgICAgICAgICAgICAgICAgICAgICAgICAgICAgICAgICAgICAgICAgICAgICAgICAKICAgICAgICAgICAgICAgICAgICAgICAgICAgICAgICAgICAgICAgICAgICAgICAgICAgICAgICAgICAgICAgICAgICAgICAgICAgICAgICAgICAgICAgICAgICAgICAgICAgIAogICAgICAgICAgICAgICAgICAgICAgICAgICAgICAgICAgICAgICAgICAgICAgICAgICAgICAgICAgICAgICAgICAgICAgICAgICAgICAgICAgICAgICAgICAgICAgICAgICAgCiAgICAgICAgICAgICAgICAgICAgICAgICAgICAgICAgICAgICAgICAgICAgICAgICAgICAgICAgICAgICAgICAgICAgICAgICAgICAgICAgICAgICAgICAgICAgICAgICAgICAKICAgICAgICAgICAgICAgICAgICAgICAgICAgICAgICAgICAgICAgICAgICAgICAgICAgICAgICAgICAgICAgICAgICAgICAgICAgICAgICAgICAgICAgICAgICAgICAgICAgIAogICAgICAgICAgICAgICAgICAgICAgICAgICAgICAgICAgICAgICAgICAgICAgICAgICAgICAgICAgICAgICAgICAgICAgICAgICAgICAgICAgICAgICAgICAgICAgICAgICAgCiAgICAgICAgICAgICAgICAgICAgICAgICAgICAgICAgICAgICAgICAgICAgICAgICAgICAgICAgICAgICAgICAgICAgICAgICAgICAgICAgICAgICAgICAgICAgICAgICAgICAKICAgICAgICAgICAgICAgICAgICAgICAgICAgICAgICAgICAgICAgICAgICAgICAgICAgICAgICAgICAgICAgICAgICAgICAgICAgICAgICAgICAgICAgICAgICAgICAgICAgIAogICAgICAgICAgICAgICAgICAgICAgICAgICAgICAgICAgICAgICAgICAgICAgICAgICAgICAgICAgICAgICAgICAgICAgICAgICAgICAgICAgICAgICAgICAgICAgICAgICAgCiAgICAgICAgICAgICAgICAgICAgICAgICAgICAgICAgICAgICAgICAgICAgICAgICAgICAgICAgICAgICAgICAgICAgICAgICAgICAgICAgICAgICAgICAgICAgICAgICAgICAKICAgICAgICAgICAgICAgICAgICAgICAgICAgCjw/eHBhY2tldCBlbmQ9InciPz7OZ7PJAAAAA3NCSVQICAjb4U/gAAAac0lEQVR42u2dXYxkx1XHT92v7unZ3vGHRAgRsXfJyiRaPoTsB0dBKHIcCSEQQooVISSQ/OI3xAsgRUQKb37z474YhCLgjThOFEDC2EQOEtgJ2Twg4mS9tpMYGePdZXu2Z7rurVs83Jme/rjTU3VOdZ2+0+e87Gjju7/cunWq/v+qUzXKWlvXdZ7nxhiQkFhnjEaj4XAo7eAYiTSBhMRmRtb8Ya29du0aAPy3uu8vkk//0aU7f/jpjyH+uT9+zf7nHfvVzySp8n72v+7Y333FfulX1G9+VCHQf/q6/d4t++Jnksx/wPnB/9nPv2L/7JfVbz+EQX/h2/Y7/2tffDLJ/dE37tqnXrZf+CX1Ow9j0F/8jv239+3XnkwKf/TNkf3cP9s/+UX1uUsY9Jf+w776nv36k0kvdX3EGCMCzTs5AeC1114DgO//1Kd+/HMPvHDz/Wc+OUH8c3/9w+y9Q/X2nclHBt7PvvyT5Hu30xfeMp/9EOb7/c2N/N0x3Lwz+eiu97OvvJtcv5V+5ab59Z9Gon90D27cnly64P3sv7ybXL+V/t1N8xsfxqD/9kZ+cx/e+GBy5aL3s998N/nurfQrb9W/9TMVBv1m/sO78P1b+pGL1vERrfVkMpGs80tOpdTzzz8PAH/5Rv2tb5qPPfLxwSBF/HOlLQEg7+0MBv6DcVYDGJtkg0EPg64J6LSzaFsB2LyPb/BapYNBgXrrCsBmRd8dbYwZDAaSdUjP2Qizskb+c82DGvW4NnzourtoO226DjW4BCY5G+uCbnFKVyN+7I6jbQfRlpLbEjwzJ6WvsKLtVr41A1oCl5wK3U2NheY5jewrlpIhFbusNXzorol5CfzMietn089cEvoKGm0J6CPnhnq2tmBsszYTGx1k5tTYrQ0tM2dsz5lSPzaLytpO9FSqlCSpgnnWAhiaF5DwnzkVZRKQ5ORC28joiiZVJPCylqJLCZ4zBNrYbURzNrgkUTc8p6UM5Lqm9DNLsrumq047AJo4aYuqFc8ZA20ZxoXtFPMS0WWtIUkdksoyGyDw4qOPhTRHg5PQEgRZyzGaklSW7ay2bBQ1YUUHOCqEZObkkLUJ9WMDR5lO99Fso6HI2g7NnIqvm1qQrZSIqzIktJXk7Jbn5HRfRLTtJJq2n8HY4BJd85ymm3a3u2hzNC5YElr2UrbIc7KhK1w3taRu2qDr40K8mBkyfbyqYze4RGxZy5khIbrptF40/lvjHu8uWgKTnImCVJ2ctPBUaJaeIbjvrUNUAuDk5dR9MaDrrqIlMMlJmTxL2oKQDjGQc6DtVqJJDS7Blpwi8LqGtuhxQWZOhuTkVFmGD+3fTTnRpqsNLoFMzoJN1uIta0nb8aP0ciqaMnNaUoOXIms7OHMqYoZ0UOBZPjTbW2tCgZGs1orn9H/WyrjQAbQEzXMifIhsKkQ2fgbQRoAXLYH1nNjz1pzuaxPQuPsfGO0uH1oivqzFr+jMVufQVFbs+ocOO23CyRI5lcIqa+vY/cwCXltS7NNsORRiHiDu+FWEFVcdyGnHr4uSwMpa7MxJOTI2iysJfaVb6Ko+qXcnVQj5jyl2pt5dtlK2QdYG+NiC5kBLhZAk57nspiGcG0TfWGZscAm654zaV2ZvZI6Nrtt/jvLWbOiS760lKJ5Tdc9zktC2q3Y3xIpOfLSEyNpOoG330VKEcO6T08qqTNQMEc/ZUVnL7b5M1G4aznMyomlO20hynveZU58czI89kGvCjl8w48eIJk7aNipaQjxnNLTdyreWmZMvOSNLnWACDzEJ8O1nkLVlmHGBgp4tcpJYv+fEnkqh/JYxTm1pw6Dj1z9MXxZxW6IOhIaZ8mAJkbWrHjf+tzOTC9mOfrD+tzOHemvE44xoCUpyKno3Nd4ZYoNkCGIg384MoaKtJGc3Z06EvNThuqk32thg6JqAtlHRJV+DS1CTU9OWN0obr58BrRiN2M840YQEm93uIje4mM5YyVmEmDlF4EV/a9uVBpegJifm6LAFAFCoeaD5wApCoFHdFI+uCWgb7q05G1zyaC2RNX9Ya59++unm5zc+9Cm4/HsHuhqPJ17/1mGVAah+BgcV3L033vN5dv8gAUibZ8nog7HyQR8S0TkAnKAT5FsfloaCHo0Px5n1RfdSODQh0LkT+uDgIE1TyTq/5ASAxx57rPnBqJ99FaBWaa+XeY6mNQDsZnBQgcqKXs8jRWxiAWzz7HaiDSS9Xo+GBgT60ODQJ//P3dFaa1+QJCcopZ555pnm570b9V+9bCqrfAe5sq4BYJApAFurNE09uqlRNYBpno2NhvOANpAg0Lu5+mBiKwv+6BKBTtNUZk6S5yRupQwyjA9pLFPzbGx0vSFoGxNd8r21BDU5fVu8qY9R2O/d/Pe7zcc2yLNXu3R0zYiGmOjZcQG9i7OLzW0JZHIWqAqh5tfFZwlyJ6bB4T52baG2kCjop7HRcLxaSx+S0NMXfVxA1z9IcnZD1jb/fZ6QHqd0cRZ0kCEJh55KlR2+cWEgydmJ5Gx0TpEgt0mP+kquEAN5SDT6rVOMPqSgp0NSo3T8d3ft8YqON7o5XZAq6KcYtARB1hL6GXr60nOekw+Nn7QxXoDxrUs+tER8WWsBIE8UrpsGkrWM6I6J+aNxIWdAS0SXtWbug+EG4wFy4XE6LnChkUvcc2hLa/A65luTvrUENTlxH7tIkRcp0LXl1PjhhhWKwCsSVSTx0RYAilQV5Ek7coNLEDwn7mNbAIBcQa4w88BxXyEtjdC05Xahj0dDnBGYkyqSnJvvObvqvkpCmQ4VbfnQfA0u0TnPadHddIPcV3y04jD50wZXmLeWoCQnbt+M5jkN2XOmSEGuZyqE8O4r4XtrZF0UG1oiuucMt+22TWjLhW4KmHdF1m6FrCUKPItfGlkUeBFXZQIpaqWOKwFRDY7f3e1nKlHe194S0RLU5OQReDnePhXpdFjBlOnsZJAo72tvZ9D4CqEihSzxvvZ22uCU75WjvhcRLUFKTsRAHqRCqJ9CqryvvV2oMi2xw0qO7aZ5QvICPGg7JzdioiXwyQkAWQKAGsiJxi9HdlPStltn0UTPuSA3xHN2JDkRckUHTU5BO6BDjgsotCQnR3LG9yGazwKFRBs02tsLhPOcaLQSz8k2c26L+zpBI7tpnpA2G1neWodQ1OI5WZIT303jnzhjtbvdRheJeM7OyVr/89aUBYblKcgPTehns+NCgfWcRYIu9yegO9vgEtFl7fHSfEEwflSBh7rDIci6JSca6Tnx60kzb60AdVuiBCE5/ecB0ZZ8aHz9Qy6ytqMzJ0LW8mwqGFI3LQnn+qk1dPOVABi0CuM5sQ0uycnkObHb8d5SZ3qbW6Jw+xnz15SgummmcG+N7+KzvRyPTklHxkgbSKkcGeuK5yQcI5p2FCra/9npxbOJwon5uRUdL3RTpagAshBOm0VRy5GxLiUn8WMLOs6KzqxUiV+0KBHCc8bqpnqpm2rUQjEerZBOm/TWZvatvQ+4hxsXoqIlyJ6TkGDoxG6giGoyyqHKqSQGONoY4EHHbfDZ0TAyWoI+c+JLPSkrOvE9J6PdDYOmlQTHR0t0TdaaJVkbTVsujQsRxTwbuiT6CJG1WydrZwWejYsOJfAMH9pP5pyMCzS0/CIjppkzsspiFHgB0Cm+Xp/81t73PyxLFZG15zs5AxwrAYhdyLbNuziNVJHyvW56znjGj+g58dtums99MaJLaoNLcjJ6Tv/KD8qN73PuK8X3cg7jdzwuKGR24dEGX7Q4m5yRG1yCPHMiCtnsvA+xyL5CM36MnpMJnWJuS9RzWykIL2ABoEhUojC3JUrwLAh1vIYOb1mbUjiva29DocH/tsRQDQ4gypZJ1uJ8SFNEXtUe3VQfj8TEbtoUkXvdzjw97hy/m2piJYA90Ti+560DJmchRULRZ05kIVvTyzMFAFDZSB+bkmBzO36ECztQ6EXjh7sXBj0usDS4BKesJXZTKtrTLVOeJb91gKJFCrrgQEtsRHK6zwOamJwzAi82mrAdEqQSYO5kifOyTFDPKdcIcSQn/qCD59Llch22xta7BEAbLNrTCyxXAkRucPQWq6btxEjQFoSwFUK4RZ2SdoJpvpcT0CkRTfCccU+WaD60xLZ5Trx56zKa6rQL2UrZ7MiaP+q6vnTp0vRvf/4P/hw+8vnxpByNxs4CrwegJuP9kbYp9ADU7dG9B902xkfjDCCzlR6NKqNTgByJLk/QI+WGPjhBV5MEoDjQFQZdzaATJ/TdcQqQgylHozEBfW9UH6Pv3huljg1ORPcBYDLeH1lIbAGQ3Nkfj/KzE3R/f19Szjs5kyR56aWXpn/76uTD//AtsGk+HPadV2VKALj/4oV+Cv2sArDFzu5wqJym77wGMBd2iuFwZzioAQwOvZth0f1iONy5uFsDmDrJhsOeL3qYe6PTogYwu718OOwfo9PhcOiN7kE/x6AHR2gLUKHQw2EfdvIKwOb9gSPanSKRTX+6fPny9Ofrb9UAJpoPYXRf82j8/Q+B0LE858xGpXjOznlOv25aW6gtJAoSheums87NO0OaeqCMfYtV0BIbuCA0WygDcavJyhrsce0eCo1f0aktGAtN8TcCPf0VtBC9hk7K9zqcnL7VZLNfi5jbnGhCF0dPX8XMXSHu6NmLZyFu0WJTuqxOpArm91BIEGZOQhFcZJUlaESGUOqipnfkK9RbS/DI2oVuGkdl6bZuGqeQbZPQmAYvAqLlvHXk5PTRliflQeC/7Em5sGMR7VnlQ7mVs1xw2im+l1PRlElb4RMbULclSgTwnGVs90XtZ3g06lbOWedGfWuOBs850BKxZe0GuS/KkbEuvTVpXNB8aInonnNmUxtoK67UXRxf9NJxM6YNJE8jEKLBCw60BFnWxt1U0Eu/yEijjpUQh5XmYmjcig6EKNPRLLI2LlqCPnPiD15B3DsBZCsltpif0RqSnF2QtYxbKYaIxo8LnGjafobma3CJMMlJXV6n7Gegllsx6LrLaOwuzuz+U1NOUDpfe7vw1lIhxOM5OfczOHZx8uPbX1276aLAQ11TkgDAUSFe7XztLbFCaPZx5Xnt7QJafpfRpsvagO4r87y/PHg3tQCmjv3Wvo8HWYtiQUtQkzM5HsgdVy714t4XaT0p8/neOkQlAM5BUbo4FR1OqkRGS1CT01euLFgg70siCUqJFW3heAOGB50g0SVfg0sESE6K1CkIxk/Q0dA4L7BQISSes2PJ2SH3tUlorwyheU6+t5YIJmu9fEgRqJt6VeoERvvUJ4VGx25wXM0jES0RZObED+S4CzsK1KLOUmJ79LPpELDgGyOhQ8taHaXAiIiW2GJZG/EOh4BFi9sj5iWCJaer1Am7qeBz/FevoZtyopEN7nu6vWVciIOWCOE5fSrC2vfNUKWeSDSxylTNiTQs2u88zUIvj9nglOo/IloivqydX15PPUbTpiJnWkRGNn74X/UFLFspQdARbzNYKFqU3zJ2nj3nwm1uxHHB61kLYCwogFTFRsPxb/7OVIBVGV+nLVspHZe1Pu6L8sEWFi2joucP9YPniitxSKotZAkkCoemDUnzUqXwL1rETfgSDDMn5cKOhS5OTLBtQRM2KtukCrVCSLZSzqesJXbT0Gifbkq4E2DhWYhYIaT5GlwiZHLqCH3FzI3E4LnsuY5uGk1Rs6DLJR8RDS0RynMqdC9HfOw540dIME/0XGWSN9p09K0Xx4VoaAk2WVsQjiARVRYnOsWhl/VCtLcOi5YihHPsOVvc13baXQraI0NOU9TiOTvnOfncl1l/Nw3sORnR+Amf3OCSnAye08uHtFxT4rWis7zZ6InG97MirPtiRGOlitcviRHPKZ7TF435LWNktOVD4xs8iKwt5Pa9rfCcy900ViFblz0n9bjZsqzFoX1vS5QIIWtjFbK1lO8xovmKFilFCImC1Pm2RGrpBW1YkYg9c1J+81TYQramWrWpXF13N11AT6+9dbmduWWz0euuEIOf/RjREqGSEz+aNuc8mjMfvjKJPpA35zwqu/ZxgfI4I5pavkfb+pJg9pzgs3Sp19NNndAmwHb8slt2UcUt6BBuWTuPCwVHg0uETE6/CztQq/PEUs/ltUf3VVPijh8nmlCCd1qFEKHBpUgo8oJQrAVAYqlnYLTXdojFT0FUNGE9ibHBJTZI1jK5L3w3jYcOWrQY1XPKam3XkvOUY18OK0LkPXG8SFuX3XXynGxOO7zn9LktUYLJc4Z1X2i056RdYPvZ8qKONxr/1pbY4OiyXk0T5BLukU1/evPNN6c/P/jgg0UyBPL5Xae+clqpZwR0EOPH6LRR68wtKzr+15QU2CVuCe/krOv6iSeemP7tU089dfX3vwhQHOhqNBo7fLA+ABzeG5njT55CD0DdHt0bpWd88tE4A8hspUejqvmbapIg0JAuobOz0AcktDY9ADUZ748mR6DEFgDJnf3xKK/90SlAfqBLP3S5hO6dgd4/yAAyMMvoajQ68EBXS+j+Wej9fUk57+RMkuTmzZuz/8NX364BTJ1kw2Fv9T9hAaq6BID794bT4bSfVQC22NkdDtUZwjqvAcyFnWI43Gn+5uKuBahqlQ6HQweVVQLAA3vD6fWW3uj+EjpxQpe2BID7L16Yzts7eQVg8/4Ag77boLPhsO+OHmT+6KIGMLu9GfSoaXA/9DD3RgOAS8NKnOE53aVOU/Scz9zm5inwlpybs7asLdT2qLI0DNrzeksIt0bNKeZ9jowR15Mkgi0I4T42xNpKYUQvXzBJHBfcn23KdxVAittKWc9CsSTnJianPj1DNC5DnAvZwqODvLWJMSS1jgvaaXcXPy6YY6mSLF3qqaVCKHJy4vbNvESaDrplFwZdY9HOhWxreGsF668cJDa4RCDP6bFvtjgSg3+ZThFoy46Kjquog741wXPGQktsledsHRe6aXedxXx3Tb5EdM+5dPoWfM7v0o3fkraMg17ciwefixRIaGOnEhqB1nwNLhFI1rr3s6USH8SiDu6uEOJATvktY91Ft4l51xUdolSR2CpZGxyNP9ECtKLFeGiRtdsmawmbCvhrSlahGbdS4qAVssFJsra1weVUSvTkdJc6p3pOyp64Ru0KgN9WCv64GXUXJ/hb+x4D4kBLhPSc8TYVUj40z1bK4qJOZDTlpJvI2q3xnIQ7AdrXorppd91vZw6yuzv7eFPx0xQqrxUtEd1zMrqvVZ4T001TBYk6KlJDofEZ0tTKulx7q0MsFOO+l5aZc0OSUwGUTgN5y44fZVHH/f7yVguUOxeyUbraKWjXIakVXXih0aOhxbtlIloiTHI2QgscBvKS0M9W93KHvtKy7Ua5pqQj6AANnnOgJYIlZxypUxJU8baiAxct+qNF1nInZxypwyjw1oU2aLSTF6C+taGjlcjajZg546gsRoFXoBZ12tFpd946ZUBLBExOfDclnyyJgw7svgQtEddzniXSVizNUy3Qmei1jAsEz+lx7IuApjW45mtwiXCe002ktS7NU42fI5po/Ayf56Sjsbs4rVtftAZ3vd1fItzM6TYPbJznJFw232F0lEMtxLeW2IgFIVYLxNZNKb/IyAMdumhRPGdXZe2ZIo2yotMUyqXzt7mB83lr4tnf5sryTGHeWhMm/NVTkKPJx826sHIDydHuLqJ9fu2vRNSZk3JNSWsfpaLd+llVQ20hSxbHBWcxf2qF0Jno6cWzWWhtib5BLw5aokuylpic24rG64W67eLZOGiJ8Mmp19lN9cpuqtfpvlrvEwDnFVfSW5vT3trpgPt6GnztaImgnpPwvb0Su0iW0U6WlXL6qXW9FJwvhl4LmrPB146WCDtz4ks9C4JMAtq5rSKirOVEJx1DS4jnJNmnLUCzNbhE1zynoXlORrvbVXRLeRAZLdeUnGPP2V33pdqWVYyNgU6CreiI5zzHsrb1FxPgj5WQLVBENOqSSPGcEoFk7Vo3FVYLPGRxksharI9Y57eWCCprU/z39vrYLQIvxfdyKtrHvC2OC8oju/Bogz9udvoG0tobXCLozOlYyLbiNjfUiRaqymLUljHRS7W1LtfeliuLEBy8QIuFaW5LtAByaGwDPSde6mxkDR3esjpee7sONLjdlriOBhdl2zHPOb2/fHVPa73NjdhNFRwN5Ku76Wr3he6mzRmX1Y9rYoa0FS06KtvVRYvE5JQF25jJiS9km/5N5TCHoLfdTkO7yMvl31biNSSdlmBu6HbPSbkXxtGynuY5Hd0yBS3BsCB06vd27ivoj726q5WWgHa8bD7BvXV7hRBng68fLbEpnpPYV4IIvHJT3dfa0GcrnXVUDoIUCXUuOV3O4GrC/LOhaIdKndYz4ue+wSWCylqfK/rbfKPLQL5KW+JuzaCiCXeFBBHzjrdyFknH0BJbJmsJIq3L6FMeJzht2UrZxuTUHPsZHpsKnUSvGhdcZC3LW0uET06NrRQlrexHQycbiLZINGkXR7mhT1lnlplzDZE1f1hrr127Nv3bq1evPv744xlYAHjhrfqBL69q9YkBAEisMWZBZVkA+OSLVXr6CHBoAABSWHy4Qb/49hnog2oV+le/5oBWy2gAgG/86Az0fgkAkNRL6MQCwK99vcowbw0A8I8/tg98uVyBvjNZ9dZPfGMVerLyrf/pJ0h0piwAfPbvV6EBwNqeUqVknV9yAsDrr78+/fnChQuPPvro5V3openEgJ6c8a984j6oq8Vx8+p9yXdvqbtnfQsF8PGLppy3SpcG0E/TQwO3z0I/sgfKlKVZRH/7Ayf0J5bQD+/ATpYeVGejr1yE1JZluYj+9/fVyAW9t4h+aAcGWTp2QF8eQtGG/tf/ORsNbW/90A7sZuk9B/TDF6APi+hfuC959T0XtJKUcw9lrTXGZFlmbYukGVdHY+3quJC3qCx7PNCeMTwkMMyBBZ0mcHHD0AfV0by6OnbzFmm6+egrV65cv359MBhI4rkmZ1VVeZ63JqeERMDY29t755139vb2pCmoC0ISEhKSnBISEkuOb/rTs88+K80hsdbQWj/33HP9fl+awiX+Hy79/YJgCovdAAAAAElFTkSuQmCC;" vertex="1" parent="1">
          <mxGeometry x="20" y="110" width="74.04" height="50" as="geometry" />
        </mxCell>
        <mxCell id="LONf2HWQU-KaP44Tsp3a-7" value="" style="shape=image;imageAspect=0;aspect=fixed;verticalLabelPosition=bottom;verticalAlign=top;image=data:image/png,iVBORw0KGgoAAAANSUhEUgAAATEAAADOCAIAAADZtKJHAAAAiHpUWHRSYXcgcHJvZmlsZSB0eXBlIGV4aWYAAHjaXY7dDQQhCITfqeJK4E+QcjZGk+3gyj/UTS7u9wAzhAxA/94DPhNCBS1eLcww0dDgK0XFjSASI82edfN0oVSc9vEgvIVFddT/oioeFLFqw9XdijVrnOncRVYlQVhbM2y+Eq+LS5zz1s8D8AP62i1Amj9v0wAACgZpVFh0WE1MOmNvbS5hZG9iZS54bXAAAAAAADw/eHBhY2tldCBiZWdpbj0i77u/IiBpZD0iVzVNME1wQ2VoaUh6cmVTek5UY3prYzlkIj8+Cjx4OnhtcG1ldGEgeG1sbnM6eD0iYWRvYmU6bnM6bWV0YS8iIHg6eG1wdGs9IlhNUCBDb3JlIDQuNC4wLUV4aXYyIj4KIDxyZGY6UkRGIHhtbG5zOnJkZj0iaHR0cDovL3d3dy53My5vcmcvMTk5OS8wMi8yMi1yZGYtc3ludGF4LW5zIyI+CiAgPHJkZjpEZXNjcmlwdGlvbiByZGY6YWJvdXQ9IiIKICAgIHhtbG5zOmV4aWY9Imh0dHA6Ly9ucy5hZG9iZS5jb20vZXhpZi8xLjAvIgogICAgeG1sbnM6dGlmZj0iaHR0cDovL25zLmFkb2JlLmNvbS90aWZmLzEuMC8iCiAgIGV4aWY6UGl4ZWxYRGltZW5zaW9uPSIzMDUiCiAgIGV4aWY6UGl4ZWxZRGltZW5zaW9uPSIyMDYiCiAgIHRpZmY6SW1hZ2VXaWR0aD0iMzA1IgogICB0aWZmOkltYWdlSGVpZ2h0PSIyMDYiCiAgIHRpZmY6T3JpZW50YXRpb249IjEiLz4KIDwvcmRmOlJERj4KPC94OnhtcG1ldGE+CiAgICAgICAgICAgICAgICAgICAgICAgICAgICAgICAgICAgICAgICAgICAgICAgICAgICAgICAgICAgICAgICAgICAgICAgICAgICAgICAgICAgICAgICAgICAgICAgICAgICAKICAgICAgICAgICAgICAgICAgICAgICAgICAgICAgICAgICAgICAgICAgICAgICAgICAgICAgICAgICAgICAgICAgICAgICAgICAgICAgICAgICAgICAgICAgICAgICAgICAgIAogICAgICAgICAgICAgICAgICAgICAgICAgICAgICAgICAgICAgICAgICAgICAgICAgICAgICAgICAgICAgICAgICAgICAgICAgICAgICAgICAgICAgICAgICAgICAgICAgICAgCiAgICAgICAgICAgICAgICAgICAgICAgICAgICAgICAgICAgICAgICAgICAgICAgICAgICAgICAgICAgICAgICAgICAgICAgICAgICAgICAgICAgICAgICAgICAgICAgICAgICAKICAgICAgICAgICAgICAgICAgICAgICAgICAgICAgICAgICAgICAgICAgICAgICAgICAgICAgICAgICAgICAgICAgICAgICAgICAgICAgICAgICAgICAgICAgICAgICAgICAgIAogICAgICAgICAgICAgICAgICAgICAgICAgICAgICAgICAgICAgICAgICAgICAgICAgICAgICAgICAgICAgICAgICAgICAgICAgICAgICAgICAgICAgICAgICAgICAgICAgICAgCiAgICAgICAgICAgICAgICAgICAgICAgICAgICAgICAgICAgICAgICAgICAgICAgICAgICAgICAgICAgICAgICAgICAgICAgICAgICAgICAgICAgICAgICAgICAgICAgICAgICAKICAgICAgICAgICAgICAgICAgICAgICAgICAgICAgICAgICAgICAgICAgICAgICAgICAgICAgICAgICAgICAgICAgICAgICAgICAgICAgICAgICAgICAgICAgICAgICAgICAgIAogICAgICAgICAgICAgICAgICAgICAgICAgICAgICAgICAgICAgICAgICAgICAgICAgICAgICAgICAgICAgICAgICAgICAgICAgICAgICAgICAgICAgICAgICAgICAgICAgICAgCiAgICAgICAgICAgICAgICAgICAgICAgICAgICAgICAgICAgICAgICAgICAgICAgICAgICAgICAgICAgICAgICAgICAgICAgICAgICAgICAgICAgICAgICAgICAgICAgICAgICAKICAgICAgICAgICAgICAgICAgICAgICAgICAgICAgICAgICAgICAgICAgICAgICAgICAgICAgICAgICAgICAgICAgICAgICAgICAgICAgICAgICAgICAgICAgICAgICAgICAgIAogICAgICAgICAgICAgICAgICAgICAgICAgICAgICAgICAgICAgICAgICAgICAgICAgICAgICAgICAgICAgICAgICAgICAgICAgICAgICAgICAgICAgICAgICAgICAgICAgICAgCiAgICAgICAgICAgICAgICAgICAgICAgICAgICAgICAgICAgICAgICAgICAgICAgICAgICAgICAgICAgICAgICAgICAgICAgICAgICAgICAgICAgICAgICAgICAgICAgICAgICAKICAgICAgICAgICAgICAgICAgICAgICAgICAgICAgICAgICAgICAgICAgICAgICAgICAgICAgICAgICAgICAgICAgICAgICAgICAgICAgICAgICAgICAgICAgICAgICAgICAgIAogICAgICAgICAgICAgICAgICAgICAgICAgICAgICAgICAgICAgICAgICAgICAgICAgICAgICAgICAgICAgICAgICAgICAgICAgICAgICAgICAgICAgICAgICAgICAgICAgICAgCiAgICAgICAgICAgICAgICAgICAgICAgICAgICAgICAgICAgICAgICAgICAgICAgICAgICAgICAgICAgICAgICAgICAgICAgICAgICAgICAgICAgICAgICAgICAgICAgICAgICAKICAgICAgICAgICAgICAgICAgICAgICAgICAgICAgICAgICAgICAgICAgICAgICAgICAgICAgICAgICAgICAgICAgICAgICAgICAgICAgICAgICAgICAgICAgICAgICAgICAgIAogICAgICAgICAgICAgICAgICAgICAgICAgICAgICAgICAgICAgICAgICAgICAgICAgICAgICAgICAgICAgICAgICAgICAgICAgICAgICAgICAgICAgICAgICAgICAgICAgICAgCiAgICAgICAgICAgICAgICAgICAgICAgICAgICAgICAgICAgICAgICAgICAgICAgICAgICAgICAgICAgICAgICAgICAgICAgICAgICAgICAgICAgICAgICAgICAgICAgICAgICAKICAgICAgICAgICAgICAgICAgICAgICAgICAgICAgICAgICAgICAgICAgICAgICAgICAgICAgICAgICAgICAgICAgICAgICAgICAgICAgICAgICAgICAgICAgICAgICAgICAgIAogICAgICAgICAgICAgICAgICAgICAgICAgICAKPD94cGFja2V0IGVuZD0idyI/PlSNUaAAAAADc0JJVAgICNvhT+AAACAASURBVHja7X1plFzFleYX8V5uVVlaSlWqRQiEBGITMkICD7thgGZpN2bwGJrpHmxm6MGcMV7APcYMZ860B7CGdhv7dHvcjW2w3e7GdruBHgMafMwmQIAkGskyixa01yqpSqqsXF6+F3d+vKysXF5mZVXli7co7g8fKJcUQUR897vfvTfiMcuyIpGIZVlQpsxNGxsba2trq/MLBKzdIs6YhxtO4sfzQunqrCjzie0do/s2WsvnsuMck1wdBWU+sYwFAOPm8b4OCpOztd/20WMfCLUOs7e8AICcRQqTymZld75m/dlr1sHxAJykF/so+UT+Fx954EHSJn64Uzucq/c7RgGTiieVzc5SeQKQCkLEtXGYxk1sGPLAffxkh/jy5si3tloN8KSkKVmEtVvE+gFSmAyb5YLj3T2c6qgBAEfzU8euhoCQApNNw/S1jdb9myyFybBZ1goMJrMmeTXVXAOrZFhlQazbZieTfJhSUpicrRnBwWSBJ4UnmJzaHRShKGcxc37dOIXJWZkpYKcJc0HIvHp4ChsJm/MTMaskTApSmAxt4BoYnvQOk/ZCZRvkSSmC0rc8qQMgogcffLD4o5UrV1599dUKb43YmMEABiCVNXI5v882bTCAZfJWLmf6cOh0rkASYxkj536D2XiOASxjipzPdq7wnz46OjoZj5mmAtt0ZBILCk8axKYkK3dJqW6EbxKTrycNwQDyHSYZY4888ogC2AyMDAJMAEKLxGJ+FwJ5sgCRB4/FZPc5m7AAkad6QwsmAAsAadFYjLk9JYsLwMoJxGIxpSfDxJPB0pPe1UIayvGU/bIknrTgt6YBhckmHDWoHE8z3IEntRAqqYsqTIbBsqZU1y6BrDzUk3nZmCR/7p3C5PHHk8K7oRvjyayUqyG+3TuFyWbpSQoMJr2Y6kR9kurypNyeAb/uncJkc/Y1q3rQZ82TnuR4FE+GD5Pkz32dMTA8dAd5L3I8PvSnCpPHlZ4kSLwMVQ0AQ9QrPMjOuyo9GXI9KYI0W0N44w5Qt/DgFU+qvGuoLGA96N4xQyMAMOSCROnJsPNkIPpdvZttEWZZsxGelHMvhBQmw41Jv9dCilc9IesyVNGojAPJL7Gr3HKowqT0aFAEZqrymaG0p7TO0IZXelLxZLh4MjC1kNIZSp5tg+7As/qkyvEoPXncYbKxoQ3P+ngUJhUmPaV0SK+Slw5dh5TyQur0VH0ynJYNTn2yLIAUkjHZGE/KdXCqj0fx5PEbu5Ye+qyPegZULSSUmBQBxST5cGjp9UlvVkNh8jjdV1/xZIN5V0Ny3tWvdSyFyebEP/6/q+UXPdlAjkeOyzBU3jXkPCkCM1XUbXDzcGiZmCy9oaJyPOHUk6Wdaz6ndC94cnq1EAmY9DCSV5g8frc2gHpS3qNVCpMKkz7Tk77s45HZM+Bh1KAwKfGg+1tS+r8WYkhMYpdulv1ZToXJUPEkZx4c9FkBw595V/JITyqeDJPZV+/aIoGJXXXumZ6c8FxTx64qx6Nstls7JxKAT2vZ0/PEfdj6MKnX+zyBIJgCnIEBeeH6NzzKAxyFyVDxJADMiQJePDw1g6zG3KgH7sMeek5dd2CTZIQjqsn4hodN3f4McBQmZ2WG5d+trUHpnunJ+kPbHi3KYX8x0O0ZlgU4Sk+GB5ACBEQ5EpofUwWOzGBTuie1kLYINcKTMU3GDHOWZ6sxpekKWrPc15gm6Rg1k6y8yPG01dWTxgQmI5wBVPwAtoRwWr2RFTYxGdMQ05gPt7YGMzBIL9vYPa720LVWyf6AT5QzSTzpXdSgMOl66iKmseDxpGQ92QBPTsauEvWkJxkvhUn3Y9fiMQpCfXIiWvPEHVAdsNnZsuiEEHD75oqHHkph0vVTHg+MniQAbd7UQoCpstOVOR4pPNkagcZ8d6dHYXLWPKlJOkbNidY8yfE0UJ80JOddRSHGifrPnypMNgGT8QDpSU9qIYUC/dR6MipLCEz6U//pjkItZGRkpPijlpaWWCymIDdtngyOnvSkZ6CQ4xFTxK5xXV4tJKaxuP9iHB2AEGLp0qXFH916661r165VkJvSRlIciOhkMYsAbSyTS6X8i8tMPgqwiJUFIllTpFIpaUOn81GARUUOiGbyzkMfHedARCNLEwD40XQ2lXIRKKmsDmgwc1GuAzhyLJW0/IRJznkpTyprNO6PCsBqieptcQZYpEeTSc23s82TCVDXnARgGoIlk0nJQ3cmYwAMch5aHyXAjEe01hgDBIvEk0kXhZXQLEDMScTiugBIj7cmk8wv50pBa5bRYDxYfTze9dbNqasnDYsARKT1DJTrjqzK8Sg96ZUHaYuAAYaAzC9Q2kMndeIM+RpDF3I8GmRj0n85HoXJ4waTFgGIa8zO/su8WTY5NK85tCG5j2eiFhLXFSZDiUkpxyi4zNCI85qshXjCk0JhMhSWLfbWBUdPesLq9lhRTlNistgz4HZDv597lRUmZx3/BCF2JSAvwOwCoGZf5CVpQxsTQ8d4zashk3eaNRndfzkf3+lRmJy9rw3AXS3DAgFRDQyyPUhuorm8/tCV90Jk9dYpngyhnoxrzP/3QopHEB5h0m6XqdMYbHjRg+7PvkiFyeYpNBGAqXqFSXvQuMrxKEwet/FPrZRGkS2lnUJbuNpKspHYNe5Fz4DiyZDypBWAqRb/N+sFT9ZxB/bbHxG5b3/EuOrjCZdlfdwL4jc9OWXYPPnOgKS3P1QtJNQ8GQ+YnpT6TFa2amjHBHVJfVLG9Er0pAePhilMuryvXPYpb04AaclepSl40ov3XWOa6q0LGyYJQFxnwdKTklm9eHumvjuQnXct6kmVdw0VJgOUd/WHnqxDShU9A64mXYrfC9JVz0BY9WSUFy5AkX+nWlILkY3JhsowhkSe9DALrTApL3tRuABl+d19wK95V5lvSZZFDer+ZCh5EvD7dS0Pp9pg2Fzx5rI0nlQ5njBisuS0uf16d5OAIbcWYpbyZM2hiz0DcfenVx5OS70lozAp46DHS0+bIF+7D0/6eEQlRWe9roV4GMkrTIY2cRJsPSlq6kk534StDqdVjie8etJSU3UeOt5wjse+aWlf+FQ8qSxUWzuDRIvb0UR8qj4eu6oU4YWHESRsnLo/GR4rfdKiflTmtzDbkz6eKd1BkScleA2HWojq4wkTSdqvZ8eVnmw8bHbsGbAqMemexlOxa/gDV6gcT6ND166FUCF2hfvVmvLknHojK7SY9PXVEC/rk9Ps44H7WSjFkyHFZMmTFlB9PFMOPVVQWuzjkSDOSz2UyvGEx0rbU4IYu3rYM1CDJwt9PBJwongyrDyp9OQ0xFt8qs4KQ2betWQ1iqUXQyhMhkJPxoOCycYej3MbAPEG+ngkY9KHe6cw2aR9DZye9NsbWdU5Hil6Ev7rwVKYbNK+Bid29WHPAAGWAAN06bUQAHHdXzlzhclmxj++/WSIl+/WNXBXKy9AQIQXGjBkx64+i3EUJmd61Mp9rZyvQblKVu4OXfeuVmlxUulJhcmm+lqVd21k6CpGKm2sA1x/JstRd2QVJsOBycq8axByPJJf9CpdqAiHxmAKVESvhaSrLOJSPHkc6Unf8mRFpB2VONuc09AVj4mVNgxIcHAVexdXmAwJJoOYd/Ui++9ceCjHm1FSnMRxn+PRARDRTTfdVPzRlVdeedtttynU1bdUVgM4F/l0OgeAmQzQ04Zl/6v/PEgEgJVLp+22Uq4DbDSVicTJfXdQGDqXyWiaVhw6WjL0sXEAEZ1ROp0GoAkOaKlsvjDdZls6rwMM+Vw6TQB06AA7ls7a/+oLTAL4zGc+U/zRqaeeGovFFOrqWx4EUGtMj8UYgGSMAMqD+3PpDEsAmNNSCCETOiFHpEfsybtngpAXggHJRIxMIxaLxXUCSGhlQ7MIABHhsFevJUoAWUyLxXRX9o4EgGQ8au9VIkIAWdz11ZgGJhljN998s4LZNPfVAiiuc03jE/tqGgKapvltqqaARUJjiOraRHBoAjChaZq7p9AwAYiYBm3CHIe2QICIacxevYQuAMsg5tJiGoIASkS4PYe4bgGUp8JWKj0Z8BxPEPRkRbu8zNmWPrdZR8p6W59UOZ5w5XiCkHetOIJSMVk1tGNnX+nlSch9jweqFhIynowHoQe9gtJlzraiEFILAPbDHxHmDU+q3rpwxa7B4MmGgOEhRVfypNv3Qpx7lRUmFSa91pNZWXqyjKK1RvVkVnYfj7oXEnDLBijH40BWkq6GZKuHdvpmjlHZx+PyXa2Kt5R8dn9AYbI5AaG9wf68q1VTT3oXu1Z8gCzvaR+PyruGBZNBzrtKu9bs4A6chq6MXblUTKocT6j0ZCDuhXhZn7RXSZ9i6Ip+V7ddhuT2WoVJb8gnNnHdgXw/VamYLFdutQJFmT0DeQFBiHDw8tKLyruGDZMMiLr8NajZSl/uj1qI470QSx4mPfRQCpNSAkLu362dLjA8BIDMO83VG6dyPCGxrO/dbV096V0txGnoqhyPix+id+qgUO/WhSR2Ja8OepD0pNVQNCEz6eJh1KAw6a4ZFircbdxnqYKKE18drUmYqlFF0Y5D229/6OVvf2Tl6kmV4wlJ7Fp6C8l284bw6VRjVVOVwJO1VslZT5bzpEtJbP8nAhQmQ7u1/ohda7S/O73HU9STxe/quJHErtlBoTAZaLMIpgBnhbf0fY/JhoAhxx3UqU9GpSymqoWElCSr9hU+vkJZnWiJy31nYOocT3l90tUZqhxPmDEZr8CkX3M8nvfWNVgLiUpJYju5CQYga6paSLjEJPx3DW+6wHDDso2RUkV90lXu8jCSV5iUqtDg48/4+LCPJ1u3PilZT6ocT9j1pG8x6UU6qsGhHXhSIibtfnS7N11hMqiWdcSkX69refn2h0WY+OhqHbBNvDMgBZNOuiPqJ3+qMNkc948A1EK84MnGGr4naiGsIujISuFJv/lThcmZ72u8/OH8uN97Bpj8MDs34xyPayBxxKSv9k5hsmnxj9/7eKSc+Kkx6ZTyrZ3jITmY9NX9AYXJ5u2rb3sGHBrBJR3Bad2fjPBqkLixGpU3vP3mTxUmZ6PQmG997QyA4YZlG7yr5Wkfj9/8qcLkLI6aFqjY1cMcT5WezNZ9ZwDu9gzU3Lus4snAx66B1ZNRDgYYwvUXvQq1kJKAQufQGCxCaTzhbX1Sxa6hwKQItp4skpLbp7BBAEjt43HKz6m8a0h4Mh6Y2NVJ/XIfYVLxpMJk+PfVJ7N1LhpVBRR2H091z4A8Penmq1wKkx6f8mwQ9GSRNl09hY43v+GUoK5dC3GjPumYMweqvmKiMBksPelU4+J+rIXYL2iw8qymHAXl6LkcnVd1LUSynlS9dYE326EGIna1X5qKcDDInq0jP9fRk1EpXfKqty6sPFkbkyIAU5WESTF53B30ZMnQ9hX/ktsjLqagVI7nuNOTfuPJmgGk+5UbR+WGid794kKZAoKgl3xUB/Lzrn6qYxWuNmzevLn4o97e3p6eHgW8Kfc1HoQ7zbWAEfNQT5YDwKhK8LgadNTRkz7J8egAiOiOO+4o/uhTn/rUV77yFQW8OjZuRABORjaVmjw1IseAaMYUqVTKP1MdSTEgGkHlrHREAD6aypT+JzR56DEGRCOsMPT4+DhjrHroY3n716hshnkORMZzZiqVae6sMvkowKxcOpWazMYxSwe0sWwulbJ8gUnG2DvvvKOQ1rhZzALE3NZ4Mjnpb+eDADNPPJlM+meqmkmA2RKpnFVL1AIEi5b9JzRZF2UIMBN6YWgisv/BHppPDJ3NAshHNVY6w7mtBJgW05LJWHNnlScToPltLcmWydihLSEAi7RoMqkpPRnQ2DUw90KmCCB9UAupbhhwNbTOOu2dyruqHI/sqUargBF3P0ts1Ej5VgAg76gnXUu6VPfWwrXSS1+a/nmPeOcQTesjC7pL+5HKY/tRGjFwzKCjRmEhdI62COIaLu7i82OyT6cg/H6E9o2jb5wOpulQFud1sqsX8Z6WJuUJfNmD3niR0AVGaijHk6+d4wlifZKA9QP0/H7x/H7aeoRo4u9ftYCdv5D96Sl8dQeTh8mchfUD9FK/eKmPNh4is/bp1Jh1YRe7fjG//kS2Yj5z+1x+NEY/3i6e2EH7UtWBpbWynV29iP3xMn5uB5vNvvqUJ0VDAaSLET6fIuVbh7iavpiCkBfgrGq4JvnTXcfojvXWS/2FY5aM4MKFbN84PhylDUO0YYi+u038h1P4g2v4iUnmOibfHqZbXrR2jxVmo3OsbGcLYpgTZXOjBT+UF0jlMZyl1wdp/QCtH7C+thGXdLOvn6NdcwJzwyP+027xgw/FK/0Fd3Vikp0xDz0t7MRWtEbYq/3i5X7aeoS2HqG//J04v5PdeQa/ZSlP6DPBJGeIcOQF8qLS6/tA+nrAkw3qyXqxq+XKlKIuRA2C8N3fi/s3WWkTXQn86Sn8msX8km5mj3XUwMZhem6/+D/vi7/fKX61R3zxLH7fOdqciDuYJODbvxNf22jlBU6fxz55Iru8h1/SzZKRmn/kWB6/OSCe3U9P7xXrB+jadea5HezrH+M3LuG8Gdj8aIz+9n3x+HYxnAWAVh03ncxvX84v7WGlf/2fr+SGwOuD9Mxe8dMd4u1henvYuuct64+X8VuX8Qu7GJv+acsL5CxfYRJwrE9KyPE01kJU3ezqnsswak6pZn7uqT1i0yFa2c5WtrNT5zDdaWfXD9B/e9vaMEQA/uQU/ugF2oJyaTY3iisXsSsXaV9cwe/bKJ7cJb65Rfz9TnrsEgc2mi0mD+fw2VfMX+8jBnxxBf/f52vRBo7jnAhuOpnfdDK+k9e+/774q99Z7xyiT//WWt0hvvVx7bKemeDy4Di9PkhvDNEbg7T5ENkXHlYtYJ8/g9+yjLfVcBBRjst72OU92sNrtF/sFt9/X7w5RN97T3zvPbGkjd26jN20hK/qqARntpZI40gBOQH/FENq68kmZInHTbw+SC/2iYE0rlzErlvM22OVQzv11pUNXd3sCteurTTeFl+0O9Zbh3OTsnNlO7uwi13cxS7q5jrDT3eKxz4Q748SgBNa2fcv1q5fXO/0npRk/3C59uUV/O4N1ptDdN068/bT+Lc+rs2NNgmT/Wlc/H/Nj8aoPYYfXardcNK02aEtgq+u5F84i//oQ/HNLWLzIfrEs+aNS/ja8/ipc6dG5s5jtH6AXumnVwZoz9jk/iV03LyU33k6//jCRuGd0HHbqfy2U/nvjtDPdol/3EV7xuihd+mhd0VXAtecwK85gV19QuHM1W6OYQDlLAKYXzBZP/k5IwWVyuOHH4pf7RFvDVHxu9Q/3gGdWxd3sRuX8P9yOo9pUwBgiryrOzzpeKGnTtRgCBzJQee4fjHfeoR2j9Hbw/T2MD26DYClc9hJk94Wdvtp7N6zy6BVx87rZK99Uv/2NvHAJuuHH4oXDtDflRDmzDF5LI9r15kfjdHqDvbPV2p1NOuUFtdw15n8c8v5X20T39xiPbVHPLtP3HUmf2CV1h5zjt1/uVv8xTvivVEqDQ8uWMgu7OIXdbHzO+tFzvXt7Hb2zXbtoTV4bZCe3CWe3U/7UvTjHcI+c5d2sxtO4uOmZ4mT5jLDdA/9QAbf3WZ9/wMxkrNzdTivk13Ry7oT7Nn94pV+ermfXu63frJD/PwKzTE7Xe0OHHvrWnQASJtornub7moMZYiAhXH29FWaLQs3H6LXBumNQbFhkMZNXL+Y3XE6v34x16fJRxrDvWfzP1zMPveq9eYQXbvOvHkp//a/0XpaZorJnIUbf2NuOUKnzWXrrtE74k1Yr4SO+8/h/+k0/sAm6/Ht4tFt4ic7xAOrtLvO5MV4mIBf7Rb/8x2xbYQAdMRxaTe/tJtd1sNWtjPevN3jDJd2s0u7NQDvjdK6/fT8AfFqP73YRy/2WaVnq5GtPWrgmb1iUStb1obFSaax4GFyb4oeflc8sUPYf+Tibnb3WfzqRbzIDF9awY8aeH6/eGCz2HyIVj9t2kn/BnkyWvUBj3lRjBoYyaHCL//1e+L1QfrL8/miVtas1agVNQxmAKArMen3r+hlV/QygFuErIXW2Ym/0+ex1z6pP7pN/I/N1s8/EusOiG+s1mbyVwrCZ1+1Xuyjnhasu0ZrCiCL1p3AY5doXziL3/uW9ZuD9OU3rb95T1zUxQ5laSiL/SkayADAkjZ2/zn8tlO5hGzKmfPYmfPYV84unLmn99Lz+0V3C6tOz9YKgR7eYq3dIoqnbUkbW7WAndfJ1nSwcztYW8R9TM4i07gvRQ9vET/6UBgCnOHfLeH3ruQXOImCuVHcsoxfu5j/5/XWP+0WL/Y11P6eL3zAp/LXuhJs1KCBDLXHyv6vR7eJXcfopT7x5BX6J6aZepg+TwLAwoQz0bU2o2qhMdxzNv/3J7O7N4hn9oq7N1gz+Vvvect6cpeYE8Hz1+hL2lzx+Svb2QvX6s/tp6++Zb03SjuPTcaoi1vZ/av455bzqPTcpn3mblmGvNDgFFPV2to9YwBw2lyWMnFwnLYfpe1H6ecfFQj5yl72Z6fzPzrJFf9SX09mnDD59jC9c4iGsxjO0sFx/HqfMAQ0hj85hf/3Vfy0qXT+3Ch++W+1v36P3fuWlbMKUWidoR3rkwC6W/DhUQxmcOa8iiwG2Qx21fPmQ2u0e1dOIzyqFU7bk0zlq3mSbO/g9tE6Mcmevkr7l73s7g1iepgk4J43rUe3iZiGp67SP9bu7lyvW8yuXqQ/s1ccy6Mzzjrj6ErIjv0crRZ47EBuxHDe2u9dpF3RyzImPjxK7xymjcO0aZi2HqEXDtILB63uhPW55fyWZXxlU1fVqJGO6owzWy9V/PzAOF3wL2ZpvpMz3LqMP7CKnz5vGhP7r2fyCxayJ7aLm5dW/qkFMQZgOEN1cjwTSKCBdJmiPGogbSIZwRfP4g+9K/78bWvDEH3nAr64sTi2Fk8uTDAGDGVJUNk1zorY1W37o5P4tYv5NDApCHe+bj32gYhp+MUV2hW9MpChc9x0cmCacntaHI6RnRopbm1CxzkL2DkL2O3LAWAkh5/uFH/3gfj9CD28RTy8RfS2sD84gf3BCeyqRbx9dh2Iz++nX+4mR+lrT2Yw40DpgnBCK/vsctYZZx1xnN/JTpkzk71e3cFWd2hOqzS5JqhRn7RVTPUMBzIEoDvB/tca7eML2X982Xpqj3huv7jzDH7fx7QpwVMLk1GOjjiGsxjKFsYtxK5ZshEr0903iklT4LZXrH/YJVp0PH2VftUiBmVwPkYDGWee7G5xWLT5Mdx9Fr/7LP76ID2xXTy3n/rS9Ph2enx7oQPxusX8+sXs7GmS5xuDdN9G69UBsqP9a6uKZt0JVjziZZFhhgCc38m+sdqtW0v2OtghKGrUJ4sRY8UM+9OTqP7kifxfb2T3bxJPfiS+s0384ANx15n80yfz1R3OkdS+FL1wUDhGDbY/Hc5Sf5q6SxAomScLPNTILx01cNsr1jN7xdwofn21fnG3AmRDp63om0dziHLUJ72LuthFXRqArUfo/x2gdQfEawOFDsT7NmJRK/tED7usm13Ww5bXUHQW4c0hem6/eH4//evhQl766+donz+DV/NkRxw6x+FsZSfgQLqg5dyz9hhiGkYNZEwk9Jqxqz2HSp5MU9Gh2Km+n12u3XcOf2CTeGaveGSreGSrmBfFJ3r4pT0swjGeR15gMEMv9dPvR6jUdVZYbwu2HkFfGqsWVDrThXHmL0yuO0B3rLcOjNOCGNZdq6/pUICsHbs68eSgXeNKsAYXzm7j+upKbncgPrefntsvDo7Tz3bSz3YWQq8WHQmNFZHWoiOmYfcYHZnoOJkTwZdW8HtWOndU2iqxM47+NIYyVFpUKAaH7q0SA7oSbF+KBjJ0churleMp8GS5g+vPTPJk0VbMZ09dpW06xH/wgfhtH+08Rk/vFU/vdVD7Vy7i157Abl7Ka+mO/nLdMeQ3njxq4CtvWj/aLgBcsJA9cZm2fK4C5NQ8WXGMbIh2T39fix2IgPbeKL3cR68M0Cv9YjCDnIURpw/wLJ/LrlvMrlvML+1msaliz64E60/TYAaLWqt40uVT2NOCfSn0p3FyW22eTNTmSScVsKaDrblYA7A3Rb/to03DxBmSEegM82LsvA52URerU9m3cW7HxpU86QdMEvDzXeLet8XBcUro+IvV2pdXcE3hsTE92Z9x2NdZ+lq7RnrXmQC0rIWMibRJxRp32kTOQmcc0+qmclS/Nk/2tDCXF4oBNJAhgBk1866oqSfrLuZJSXb78kIKbZr5uTLdIQiHsuDMB7HrxmH60pvWG4Nk0+Pjl2mnKXqcDU+mUcu1z8ziGuIa5sdm+xfaxYbBTFm0VmD1FncXqpSU8k5vf9jTY8BwFqX1iYHa2bJZWm8LAPSV8OShLCwqCG/PMDmWxxfesH66UwhCdwIPnqd99lTOFR4btnlRJHSM5TFuTjZ5DHihSRrzIE48KSV2Lc361opdIxztMRzO4VB2Mnoszbs2201U8qQnCR5UvMfz633ixztElONrH+PbPxO5fbkC5ExPW9XWdid8t5R2EmUwUxatDWWJud+5UsqTRo0Xg4p8WDpD91JQdjxcqieHst440zJM3riEf+8i7f1P6w+fp7nahBl+SZmuzPH4kScTk8Ro23AWpsCCuOt3sieGJgB5AoAIc/QaZUxuCBzOQufojLvhJhgDBjJU7GGaSPB4ypNxDZ8/g7vUwnqcmB0ClWYm7JPndtakKTzZL2uqhUAxMxVPlrcNDKSJgK4EcyN8i2lojyEvcChbxKQMaT0FJpW5IdICpCdnXLaZWew6UMjxOOtJVLUNNJJ0bYanoFKe7PKWJ5W5qCf9ypOlU5VG6TbXDWbIopr3QiaZfGKGbtdpestLlIWLWnEoTIZKT46bSOWR0DHHf/q8PYYox6gx+TCCNJ60Ol1oawAABY1JREFUc6oW4VC2Hk9W6Ml+l/v+bLT3pRVPhjN2pVLm8WHSFQCbSGAUb2wNSDyFxdqDUSd2LVe8BZ50MXYt86eDHokOhUmXcjx+F5OlrD45W/cb0KuHzteOXSsUb3+zuy9quYmy2FVhMiyxa1n840+enAwOZQk2RwDUevujWvEOODWgN11PFlt5Cpcn4yp2DbjZ2YuhDOznS2Uyz4wibYaSxKacJp6KQLFOLaQzDo3hcK7Apf0uC4FSnhw1kLMwJ4KEDoXJYFtp9gJNakCXF7tKZPVi7bFOjkdj6IgXesHhZmNdtZ4sbJwX2XKFSfckJZXoSd/GrpNJlIyJowZiGubF5KxSgZnr1EJKoUsTuSj3FrN3gifJu0KIwqSrkhLFsLDbrzxZ+ipP/wRJMkmrVCjQ1+HJEsWLw1kYAvNjDm8LNcviGubHCh18XhVCFCbd5Mk0QW51YcZ6skDpcqXvpJ6si8liG3qh78/t5vhEgSoHvUuYK0y6xpOZEp70a46nq6QNfaL6x2S6g/405evGrsW2AbeTrmWeIlOIkxcqTIYEkyU3jAZ9zpMlelIyT86JoFVH2sThLNWNXct40u0WRVtS9o0XeVLFruHSk8fyyJhIRprziL0bZn+u176ELT9FbAPMzqnWjF0neFKOMp/kySygcjwh48mBNPX79ZaWs2DLTDKnTElpNwREazz3VJhemvqkLGaxRKlyPKGy4ouSHubTZyAp5UvfUvxHGtOTbvNksZXHq8Y62O/xENG5555b/NENN9xwzz33KGjN2NqIAdG+cbFnxAAiHVErlcr6drYdkQjA945kDo5pAJ+LbCol3BhofHyclddZOiI6UKhsGJnxVN7hdcw2wYDoQFp0RAngc5lb07NtHuNA5MCYOZhmAGsV6VSKPMAkY+yxxx6bdBW9vclkUkFrxpYEEno+ZbI+Iw5Yi9r0ZDLm29kuarMAMUrxoZwA6OT2RDLpSsBGRBXnavEcARTuic1Ltjp2sbW0IsLzowY7kOEALV3g1vRsWyoIMPeO8zETMQ2L5rd6w5MAVq9erbDU3Khs9xi9e8TXDehlSZQJBSXz7nVpYSNaoxOAMyxMsIPjtGdMxmL2llzr8SpbrvSkiwf93cO+bnadEGwMwPujMATmRV3skqmjJzlDnRe97QUkIKZhvssBR4uO4penvUoEKEy6c9paGIAdRwk+bqybmCoAFChdboq4yJP1P+9bXEA5fX/F1K5XzlRh0kWetK9rdfk7drWnt+uYB+6j6ALqP11ZXMAeKTnh4jsGC1XsGiYrLaP5trGu1H3Yj5pK5snOiWf/Iw3zpIRZ9bYqngwvT1a4eT+H2RMZDqlDa6zwenK0MZ7slZIELfKkyvGETE8W/sHVu0VNsVYdyYhnp9AOKKJ1v9lWXMxuiY93KZ4Mbewq/zWXGUtKeJGOskdsUE/KmV4xWFB6Mpyxq8/FZNVsveHJRvVki7wpQdVCQmZdE1l7n4vJYPGkrAf1lJ4Mo0U4FsS9OeWzUb/dXunJusdw3oQm75EUuzJWsoPyTVf4cY0B2KEsBYgndY4O6afQJqX6PMmA20/jB8YnqxSuWjKCb6zR4ho0pjAZLutpwbaRIOnJhXEm/xPAp8xhADqnyoT9zYVSk9f3n+Nl/Kgw6ZZd1sNfG7TO7wwET5ZFsDJtZTt79Q/10+epT54qTErxtfeczX1enLTt3A42L4orerwBxiXdCpDlsbplWZFIxLIstRbKXLV9+/adeOKJah2mNE5EQgi1EMrcttWrV4+Pj6t1aAiTahWUSTDDMEzTVOswNSbVEihTpjCpTJmymlbIu65du1athTK3Y9dHH300Ho+rpZgCk7qur1ixYmRkRK2FMlftkksuSafTmUxGLUV9YyrHo0yZr+z/A8KkH02dfSiWAAAAAElFTkSuQmCC;" vertex="1" parent="1">
          <mxGeometry x="120" y="110" width="74.03" height="50" as="geometry" />
        </mxCell>
        <mxCell id="LONf2HWQU-KaP44Tsp3a-12" style="edgeStyle=orthogonalEdgeStyle;rounded=0;orthogonalLoop=1;jettySize=auto;html=1;exitX=1;exitY=0.5;exitDx=0;exitDy=0;entryX=0;entryY=0.5;entryDx=0;entryDy=0;strokeColor=#babdb6;" edge="1" parent="1" source="LONf2HWQU-KaP44Tsp3a-8" target="LONf2HWQU-KaP44Tsp3a-10">
          <mxGeometry relative="1" as="geometry" />
        </mxCell>
        <mxCell id="LONf2HWQU-KaP44Tsp3a-8" value="" style="rounded=0;whiteSpace=wrap;html=1;fillColor=none;strokeColor=#babdb6;" vertex="1" parent="1">
          <mxGeometry x="20" y="110" width="80" height="50" as="geometry" />
        </mxCell>
        <mxCell id="LONf2HWQU-KaP44Tsp3a-13" style="edgeStyle=orthogonalEdgeStyle;rounded=0;orthogonalLoop=1;jettySize=auto;html=1;exitX=1;exitY=0.5;exitDx=0;exitDy=0;entryX=0;entryY=0.5;entryDx=0;entryDy=0;" edge="1" parent="1" source="LONf2HWQU-KaP44Tsp3a-10" target="LONf2HWQU-KaP44Tsp3a-11">
          <mxGeometry relative="1" as="geometry" />
        </mxCell>
        <mxCell id="LONf2HWQU-KaP44Tsp3a-10" value="" style="rounded=0;whiteSpace=wrap;html=1;fillColor=none;fillStyle=auto;strokeColor=#babdb6;" vertex="1" parent="1">
          <mxGeometry x="120" y="110" width="80" height="50" as="geometry" />
        </mxCell>
        <mxCell id="LONf2HWQU-KaP44Tsp3a-11" value="S(t)" style="rounded=0;whiteSpace=wrap;html=1;" vertex="1" parent="1">
          <mxGeometry x="220" y="120" width="70" height="30" as="geometry" />
        </mxCell>
        <mxCell id="LONf2HWQU-KaP44Tsp3a-15" style="edgeStyle=orthogonalEdgeStyle;rounded=0;orthogonalLoop=1;jettySize=auto;html=1;exitX=1;exitY=0.5;exitDx=0;exitDy=0;entryX=0.09;entryY=0.16;entryDx=0;entryDy=0;entryPerimeter=0;" edge="1" parent="1" source="LONf2HWQU-KaP44Tsp3a-11" target="wsGLkKjSFnASxqrC0h3r-1">
          <mxGeometry relative="1" as="geometry" />
        </mxCell>
      </root>
    </mxGraphModel>
  </diagram>
</mxfile>
